<svg xmlns="http://www.w3.org/2000/svg" width="22" height="35" fill="none" viewBox="0 0 22 35">
  <path fill="#FFD983" d="M22 10.92c0 6.439-5 7.439-5 13.44 0 3.098-3.123 3.359-5.5 3.359-2.053 0-6.586-.779-6.586-3.361C4.914 18.36 0 17.36 0 10.92 0 4.889 5.285 0 11.083 0 16.883 0 22 4.889 22 10.92Z"/>
  <path fill="#CCD6DD" d="M15.167 32.36c0 .828-2.234 2.5-4.167 2.5-1.933 0-4.167-1.672-4.167-2.5 0-.828 2.233-.5 4.167-.5 1.933 0 4.167-.328 4.167.5Z"/>
  <path fill="#FFCC4D" d="M15.707 10.153a.999.999 0 0 0-1.414 0L11 13.446l-3.293-3.293a.999.999 0 1 0-1.414 1.414L10 15.274V25.86a1 1 0 1 0 2 0V15.274l3.707-3.707a.999.999 0 0 0 0-1.414Z"/>
  <path fill="#99AAB5" d="M17 30.86a2 2 0 0 1-2 2H7a2 2 0 0 1-2-2v-6h12v6Z"/>
  <path fill="#CCD6DD" d="M4.999 31.86a1 1 0 0 1-.163-1.986l12-2a.994.994 0 0 1 1.15.822.999.999 0 0 1-.822 1.15l-12 2a.927.927 0 0 1-.165.014Zm0-4a1 1 0 0 1-.163-1.986l12-2a.995.995 0 0 1 1.15.822.999.999 0 0 1-.822 1.15l-12 2a.927.927 0 0 1-.165.014Z"/>
</svg>
